HIERARCHY
ROOT hip
{
	OFFSET 0.000000 0.000000 0.000000 
	CHANNELS 6 Xposition Yposition Zposition Xrotation Zrotation Yrotation
	JOINT abdomen
	{
		OFFSET 0.000000 3.402643 0.000000 
		CHANNELS 3 Xrotation Zrotation Yrotation
		JOINT chest
		{
			OFFSET 0.000000 8.438565 -0.680529 
			CHANNELS 3 Xrotation Zrotation Yrotation
			JOINT neck
			{
				OFFSET 0.000000 10.207942 -0.272212 
				CHANNELS 3 Xrotation Zrotation Yrotation
				JOINT head
				{
					OFFSET 0.000000 3.130431 0.000000 
					CHANNELS 3 Xrotation Zrotation Yrotation
					End Site
					{
						OFFSET 0.000000 3.130435 0.000000 
					}
				}
			}
			JOINT lCollar
			{
				OFFSET 3.470700 6.669187 -0.816635 
				CHANNELS 3 Yrotation Zrotation Xrotation
				JOINT lShldr
				{
					OFFSET 3.198488 0.000000 0.000000 
					CHANNELS 3 Zrotation Yrotation Xrotation
					JOINT lForeArm
					{
						OFFSET 10.139888 0.000000 0.000000 
						CHANNELS 3 Yrotation Zrotation Xrotation
						JOINT lHand
						{
							OFFSET 8.370511 0.000000 0.000000 
							CHANNELS 3 Zrotation Yrotation Xrotation
							End Site
							{
								OFFSET 4.083176 0.000000 0.000000 
							}
						}
					}
				}
			}
			JOINT rCollar
			{
				OFFSET -3.470700 6.669187 -0.816635 
				CHANNELS 3 Yrotation Zrotation Xrotation
				JOINT rShldr
				{
					OFFSET -3.198488 0.000000 0.000000 
					CHANNELS 3 Zrotation Yrotation Xrotation
					JOINT rForeArm
					{
						OFFSET -10.139888 0.000000 0.000000 
						CHANNELS 3 Yrotation Zrotation Xrotation
						JOINT rHand
						{
							OFFSET -8.370511 0.000000 0.000000 
							CHANNELS 3 Zrotation Yrotation Xrotation
							End Site
							{
								OFFSET -4.083176 0.000000 0.000000 
							}
						}
					}
				}
			}
		}
	}
	JOINT lThigh
	{
		OFFSET 5.308129 -1.633274 1.361059 
		CHANNELS 3 Xrotation Zrotation Yrotation
		JOINT lShin
		{
			OFFSET -2.041588 -20.007561 0.000000 
			CHANNELS 3 Xrotation Zrotation Yrotation
			JOINT lFoot
			{
				OFFSET 0.000000 -19.190928 -1.224953 
				CHANNELS 3 Xrotation Yrotation Zrotation
				End Site
				{
					OFFSET 0.000000 -2.449906 4.627600 
				}
			}
		}
	}
	JOINT rThigh
	{
		OFFSET -5.308129 -1.633274 1.361059 
		CHANNELS 3 Xrotation Zrotation Yrotation
		JOINT rShin
		{
			OFFSET 2.041588 -20.007561 0.000000 
			CHANNELS 3 Xrotation Zrotation Yrotation
			JOINT rFoot
			{
				OFFSET 0.000000 -19.190928 -1.224953 
				CHANNELS 3 Xrotation Yrotation Zrotation
				End Site
				{
					OFFSET 0.000000 -2.449906 4.627600 
				}
			}
		}
	}
}
MOTION
Frames: 15
Frame Time: 0.011111
2.280734 53.210545 -2.912867 1.372013 1.115339 -4.955092 22.462620 -3.247271 0.088745 -21.250536 -0.967103 0.248238 -13.977737 -8.954999 -3.657887 16.793871 15.449171 -8.025830 2.424333 -4.683778 1.783845 -70.055481 -30.965605 2.610178 -42.983315 5.758111 5.455023 8.524705 12.647240 -54.593147 -2.738486 -1.140572 2.095526 74.107117 25.463949 26.216311 47.936771 -7.207062 7.339548 -8.534408 -12.637552 22.367046 4.560241 5.497128 -5.201564 10.700807 -5.975734 -2.220989 -19.823809 10.578380 0.617900 2.314921 -8.210546 17.782574 13.483265 5.911325 2.602882 -23.629484 -13.590616 -2.637857 
2.283440 53.215359 -2.909860 1.420605 1.120282 -4.983428 22.413946 -3.257264 0.117003 -21.221273 -0.937623 0.256525 -14.079187 -8.800447 -3.558527 16.927881 15.312200 -7.782242 2.424333 -4.683778 1.783845 -70.104050 -30.915966 2.718850 -43.105339 5.792634 5.497301 8.524705 12.647240 -54.495495 -2.738486 -1.140572 2.095526 74.067390 25.464825 26.302860 48.039616 -7.228271 7.379816 -8.534408 -12.637552 22.689312 4.536268 5.491578 -5.279952 10.617971 -5.963629 -2.213084 -19.831165 10.655288 0.653983 2.275848 -8.229671 17.889547 13.493787 5.911651 2.603788 -23.689310 -13.620541 -2.676860 
2.293063 53.222275 -2.910461 1.488736 1.116204 -4.972579 22.354393 -3.205222 0.119800 -21.240793 -0.947625 0.247414 -13.934622 -8.656213 -3.437556 16.767590 15.192511 -7.512992 2.424333 -4.683778 1.783845 -70.141808 -30.827436 2.885868 -43.197506 5.823417 5.530229 8.524705 12.647240 -54.280655 -2.738486 -1.140572 2.095526 74.006485 25.417322 26.437557 48.123096 -7.252690 7.415882 -8.534408 -12.637552 22.972513 4.408093 5.490864 -5.315933 10.721720 -5.978846 -2.213237 -19.905165 10.627310 0.679399 2.217110 -8.237559 17.868727 13.456752 5.922123 2.620748 -23.714834 -13.594372 -2.664692 
2.302988 53.225281 -2.920987 1.537385 1.110674 -4.971889 22.373220 -3.168777 0.133974 -21.279848 -0.957216 0.248396 -13.742537 -8.562430 -3.290401 16.422947 15.182129 -7.205855 2.424333 -4.683778 1.783845 -70.180878 -30.797491 2.935694 -43.269310 5.849965 5.562783 8.524705 12.647240 -54.192757 -2.738486 -1.140572 2.095526 73.956841 25.418413 26.592125 48.164841 -7.264847 7.435183 -8.534408 -12.637552 23.206890 4.355581 5.487258 -5.245508 10.746593 -5.973732 -2.225286 -19.962282 10.548145 0.660659 2.148269 -8.249436 17.898375 13.420097 5.934241 2.599906 -23.661146 -13.679225 -2.687750 
2.312611 53.229492 -2.931212 1.595793 1.115479 -4.960989 22.372604 -3.151087 0.143228 -21.299322 -1.005930 0.250419 -13.886401 -8.492437 -3.153867 16.562851 15.172477 -6.909529 2.424333 -4.683778 1.783845 -70.181313 -30.817019 3.140770 -43.320282 5.864639 5.579489 8.524705 12.647240 -54.036510 -2.738486 -1.140572 2.095526 73.947426 25.438160 26.748039 48.195965 -7.272162 7.444506 -8.534408 -12.637552 23.382671 4.272563 5.472151 -5.126779 10.750297 -5.966445 -2.234435 -19.926558 10.457994 0.624701 2.080345 -8.260843 17.816761 13.396554 5.914512 2.595265 -23.581572 -13.603860 -2.616590 
2.325241 53.227692 -2.931212 1.625105 1.116628 -4.911609 22.420403 -3.122177 0.174274 -21.250423 -1.054612 0.260978 -14.228408 -8.440332 -3.059891 16.901880 15.144474 -6.711202 2.424333 -4.683778 1.783845 -70.173798 -30.924587 3.374886 -43.340664 5.868715 5.579999 8.524705 12.647240 -53.890030 -2.738486 -1.140572 2.095526 73.979599 25.525370 26.719759 48.195965 -7.272162 7.444506 -8.534408 -12.637552 23.343605 4.272770 5.472383 -5.097184 10.689957 -5.975132 -2.220074 -19.838503 10.415568 0.590179 2.041242 -8.268986 17.736856 13.435444 5.924023 2.589993 -23.582010 -13.599301 -2.624963 
2.334263 53.221069 -2.929708 1.615441 1.232933 -4.908485 22.520304 -3.264023 0.186704 -21.240665 -1.044567 0.270228 -14.426669 -8.501157 -2.909984 17.005764 15.372944 -6.434266 2.424333 -4.683778 1.783845 -70.195190 -30.992601 3.639047 -43.494305 5.919533 5.637025 8.524705 12.647240 -53.958389 -2.738486 -1.140572 2.095526 73.970184 25.545113 26.787785 48.279476 -7.296322 7.480737 -8.534408 -12.637552 23.460796 4.351295 5.345514 -5.170947 10.615836 -5.967498 -2.213422 -19.834316 10.446636 0.609204 1.982054 -8.372269 17.671358 13.495451 5.907750 2.603390 -23.569166 -13.557817 -2.608323 
2.341180 53.216564 -2.943542 1.595913 1.241839 -4.937917 22.677139 -3.269616 0.196271 -21.279806 -0.985487 0.278684 -14.505889 -8.555734 -2.701590 16.986376 15.514357 -6.027674 2.424333 -4.683778 1.783845 -70.265152 -31.010979 3.948548 -43.709465 5.990122 5.720352 8.524705 12.647240 -53.997448 -2.738486 -1.140572 2.095526 73.901192 25.566162 26.863562 48.362064 -7.313855 7.511057 -8.534408 -12.637552 23.460796 4.380409 5.345403 -5.142157 10.526789 -5.986550 -2.205879 -19.649641 10.501192 0.588935 1.953394 -8.395779 17.658455 13.524503 5.914613 2.606713 -23.566101 -13.539257 -2.608091 
2.349901 53.216267 -2.964893 1.576362 1.211678 -4.968434 22.822664 -3.241259 0.255165 -21.348137 -1.014084 0.290662 -14.591185 -8.515635 -2.515625 17.005585 15.584960 -5.637673 2.424333 -4.683778 1.783845 -70.265816 -31.040266 4.212220 -43.800842 6.013515 5.757078 8.524705 12.647240 -53.743538 -2.738486 -1.140572 2.095526 73.902771 25.624741 26.951454 48.372688 -7.318622 7.519848 -8.534408 -12.637552 23.470560 4.418823 5.363933 -5.082144 10.398184 -5.975803 -2.183903 -19.539656 10.542826 0.545115 1.874917 -8.355736 17.731148 13.629841 5.916733 2.626370 -23.560064 -13.554018 -2.604544 
2.362532 53.217167 -2.976923 1.654284 1.217598 -4.937493 22.851038 -3.221666 0.284790 -21.338308 -1.062585 0.301979 -14.872474 -8.423958 -2.422735 17.245003 15.509732 -5.447634 2.424333 -4.683778 1.783845 -70.248596 -31.157766 4.270311 -43.800842 6.013515 5.757078 8.524705 12.647240 -53.802139 -2.738486 -1.140572 2.095526 73.925270 25.721931 26.942364 48.331127 -7.306025 7.491930 -8.534408 -12.637552 23.490093 4.334880 5.389211 -5.077746 10.330163 -5.976110 -2.187485 -19.465836 10.537621 0.535231 1.748215 -8.357314 17.748615 13.695301 5.912900 2.632175 -23.574919 -13.595602 -2.611866 
2.376065 53.221977 -2.981434 1.683597 1.287588 -4.905571 22.900557 -3.290514 0.297555 -21.308969 -1.091677 0.312219 -15.102574 -8.273963 -2.393264 17.473595 15.321358 -5.373295 2.424333 -4.683778 1.783845 -70.230713 -31.245968 4.494417 -43.924023 6.052886 5.797568 8.524705 12.647240 -53.792370 -2.738486 -1.140572 2.095526 73.936256 25.760765 26.937180 48.351440 -7.309083 7.502266 -8.534408 -12.637552 23.451029 4.342421 5.288733 -5.048091 10.314977 -5.982993 -2.187155 -19.403742 10.487020 0.497824 1.690190 -8.445271 17.752432 13.717158 5.910827 2.643434 -23.730165 -13.583014 -2.669602 
2.385388 53.222275 -2.987448 1.703039 1.328884 -4.923489 22.921135 -3.333768 0.329401 -21.357897 -1.012986 0.320113 -14.921007 -8.181726 -2.367130 17.223288 15.096996 -5.321752 2.424333 -4.683778 1.783845 -70.339104 -31.205099 4.682694 -44.016384 6.082396 5.831535 8.524705 12.647240 -53.675179 -2.738486 -1.140572 2.095526 73.834282 25.665318 27.027229 48.445595 -7.337744 7.547453 -8.534408 -12.637552 23.451029 4.336164 5.253217 -5.100165 10.248010 -5.963250 -2.150346 -19.457073 10.489453 0.505596 1.621248 -8.494596 17.827759 13.779434 5.915094 2.640398 -23.891991 -13.540998 -2.700821 
2.393507 53.221672 -2.997973 1.741942 1.332533 -4.932343 22.940180 -3.352566 0.405027 -21.377439 -1.002060 0.349383 -14.779792 -8.116971 -2.315534 17.000204 15.015576 -5.217287 2.424333 -4.683778 1.783845 -70.379509 -31.233728 4.918054 -44.077900 6.102188 5.856802 8.524705 12.647240 -53.577526 -2.738486 -1.140572 2.095526 73.802910 25.607389 27.006683 48.528202 -7.355028 7.577930 -8.534408 -12.637552 23.353376 4.300416 5.246474 -5.119776 10.183084 -5.977906 -2.145175 -19.371899 10.557754 0.514525 1.543141 -8.494063 17.827364 13.832865 5.912983 2.663974 -23.863852 -13.527392 -2.698952 
2.400424 53.226788 -3.004890 1.780895 1.296241 -4.913129 22.977209 -3.321307 0.513012 -21.308947 -1.099390 0.371118 -14.815501 -8.037422 -2.269462 16.889223 15.040628 -5.110140 2.424333 -4.683778 1.783845 -70.302475 -31.342451 5.248092 -44.170292 6.131452 5.890965 8.524705 12.647240 -53.372452 -2.738486 -1.140572 2.095526 73.883949 25.664228 26.960552 48.590504 -7.369222 7.596840 -8.534408 -12.637552 23.411968 4.247566 5.282346 -5.144943 10.183884 -5.976067 -2.154773 -19.386244 10.576227 0.516610 1.475033 -8.447537 17.849586 13.844330 5.910949 2.664628 -23.754370 -13.624296 -2.689667 
2.407341 53.233105 -3.009702 1.819966 1.347150 -4.871645 23.006899 -3.365102 0.515736 -21.279619 -1.118763 0.380987 -14.715326 -8.014531 -2.211818 16.562487 15.117764 -4.997068 2.424333 -4.683778 1.783845 -70.274002 -31.401527 5.486805 -44.242290 6.156779 5.924476 8.524705 12.647240 -53.196667 -2.738486 -1.140572 2.095526 73.914276 25.683102 26.990856 48.632278 -7.381000 7.615141 -8.534408 -12.637552 23.499861 4.217201 5.231186 -5.099584 10.183885 -5.976068 -2.154773 -19.381481 10.513288 0.500307 1.406444 -8.494390 17.915504 13.857244 5.905404 2.664918 -23.789595 -13.734468 -2.733011 
